<svg xml:space="preserve" viewBox="73.1372 344.58 847.984 285.988" version="1.1" xmlns:xlink="http://www.w3.org/1999/xlink" xmlns="http://www.w3.org/2000/svg" style="max-height: 500px" width="847.984" height="285.988">
<desc>Created with Fabric.js 3.5.0</desc>
<defs>
</defs>
<rect fill="rgba(255,255,255,0)" height="100%" width="100%" y="0" x="0"/>
<g id="321430" transform="matrix(0.4759 0.0628 -0.0628 0.4759 291.3679 484.3739)">
<g style="">
		<g id="Capa_1" transform="matrix(23.741 0 0 23.741 -240.4544 36.2362)">
<path stroke-linecap="round" d="M 12.259 8.471 c -0.087 -1.294 -0.592 -1.444 -1.15 -0.41 c 0 -0.006 -0.001 -0.013 -0.001 -0.019 c -0.015 -0.253 -0.042 -0.507 -0.097 -0.755 C 11.007 7.271 11.004 7.256 11 7.24 c -0.018 -0.071 -0.023 -0.144 -0.05 -0.214 c -0.056 -0.153 -0.185 -0.337 -0.386 -0.311 c -0.182 0.042 -0.306 0.181 -0.415 0.311 c -0.052 0.073 -0.095 0.149 -0.142 0.224 C 9.88 7.347 10.148 6.901 10.06 6.955 c -0.343 0.351 -0.519 0.77 -0.646 1.049 C 9.292 8.294 9.25 8.481 9.322 8.443 c -0.642 0.932 -1.516 2.16 -2.121 3.31 c -0.062 0.197 0.246 -0.279 0.12 0.036 c -0.937 1.241 -1.915 3.521 -1.788 3.692 c 0.768 -1.568 1.69 -3.124 2.61 -4.685 L 7.63 11.778 c -1.894 3.547 -3.632 7.374 -5.366 11.209 L 0.656 26.52 c -0.249 0.586 -0.616 1.152 -0.653 1.824 c -0.023 0.323 0.067 0.688 0.34 0.905 c 0.27 0.206 0.621 0.221 0.93 0.169 c 0.122 0.428 0.482 0.673 1.05 0.609 c 1.047 -0.118 2.283 -1.155 2.764 -2.317 c 0.479 -1.163 1.867 -2.168 3.098 -2.247 c 0.204 -0.014 0.398 0.003 0.587 0.031 c 0.066 0.07 0.13 0.144 0.184 0.223 c 0.032 0.048 0.074 0.089 0.101 0.141 c 0.018 0.038 0.031 0.092 0.049 0.136 c 0.046 0.117 0.091 0.234 0.101 0.364 c -0.024 0.681 0.384 1.481 1.131 1.623 c 0.122 0.027 0.248 0.03 0.373 0.022 c 0.286 0.435 0.772 0.673 1.323 0.576 c 0.863 -0.149 1.49 -1.381 1.398 -2.749 L 12.259 8.471 z M 8.939 22.244 c -0.779 0.072 -0.992 -0.897 -0.477 -2.168 l 0.953 -2.339 c 0.518 -1.269 0.938 -1.186 0.938 0.185 v 1.712 C 10.354 21.004 9.72 22.173 8.939 22.244 z M 9.981 27.66 c -0.12 -0.079 -0.217 -0.187 -0.304 -0.303 c -0.02 -0.028 -0.041 -0.054 -0.062 -0.086 c -0.078 -0.125 -0.141 -0.26 -0.178 -0.403 c -0.003 -0.014 -0.005 -0.027 -0.008 -0.042 c -0.018 -0.073 -0.03 -0.148 -0.037 -0.226 c -0.006 -0.053 -0.013 -0.107 -0.018 -0.163 c -0.006 -0.065 -0.016 -0.128 -0.023 -0.194 c -0.006 -0.032 -0.008 -0.062 -0.016 -0.096 c -0.013 -0.072 -0.036 -0.14 -0.062 -0.209 c -0.014 -0.035 -0.023 -0.069 -0.042 -0.104 c -0.006 -0.013 -0.008 -0.025 -0.015 -0.037 c -0.037 -0.082 -0.095 -0.166 -0.161 -0.25 c 0.804 0.218 1.374 0.81 1.386 1.541 c 0.004 0.276 0.069 0.524 0.174 0.74 C 10.39 27.826 10.168 27.785 9.981 27.66 z M 1.503 28.003 c -0.16 0.332 -0.244 0.637 -0.27 0.907 c -0.373 0.087 -0.638 0.041 -0.745 -0.19 c 0.014 -0.094 0.061 -0.069 0.094 -0.095 c 0.046 -0.033 0.032 -0.066 0.121 -0.387 c 0.056 -0.315 0.27 -0.689 0.484 -1.142 l 0.614 -1.313 c 0.403 -0.887 0.795 -1.794 1.183 -2.71 c 0.775 -1.83 1.533 -3.691 2.328 -5.486 c 0.591 -0.642 1.905 -3.301 2.226 -4.461 C 7.451 13.001 6.667 14.85 6.6 14.759 c 0.263 -1.055 1.431 -3.032 2.023 -4.37 C 9.094 9.46 9.565 8.53 10.038 7.584 c 0.144 -0.286 0.389 -0.648 0.569 -0.674 c 0.039 -0.019 0.13 0.08 0.181 0.233 c 0.056 0.146 0.079 0.318 0.102 0.483 l 0.05 0.766 L 1.503 28.003 z" transform="translate(-6.7203, -18.3748)" style="stroke: none; stroke-width: 1; stroke-dasharray: none; stroke-linecap: butt; stroke-dashoffset: 0; stroke-linejoin: miter; stroke-miterlimit: 4; is-custom-font: none; font-file-url: none; fill: rgb(0,0,0); fill-rule: nonzero; opacity: 1;"/>
</g>
		<g id="Capa_1" transform="matrix(23.741 0 0 23.741 162.284 -30.1198)">
<path stroke-linecap="round" d="M 32.91 12.975 c -0.131 0 -0.273 0.022 -0.419 0.057 c -0.016 -0.268 -0.138 -0.522 -0.405 -0.607 c -0.354 -0.126 -0.746 -0.019 -1.088 0.126 c -0.35 0.148 -0.674 0.352 -0.979 0.573 c -0.56 0.41 -1.062 0.896 -1.481 1.445 l 1.344 -7.513 c 0.179 -0.989 -0.076 -1.836 -0.588 -2.221 c -0.024 -0.064 -0.049 -0.131 -0.076 -0.188 c -0.17 -0.355 -0.391 -0.539 -0.446 -0.534 c 0.144 0.193 0.237 0.397 0.312 0.604 c -0.074 -0.033 -0.152 -0.058 -0.236 -0.073 c -0.088 -0.192 -0.2 -0.379 -0.357 -0.551 c -0.277 -0.307 -0.756 -0.476 -1.156 -0.423 c -0.44 0.045 -0.785 0.255 -1.076 0.502 c -0.565 0.509 -0.908 1.186 -1.076 1.891 c -0.233 1.379 -0.403 2.7 -0.604 4.058 c -0.387 2.698 -0.769 5.398 -1.207 8.043 c -0.219 1.323 -0.451 2.634 -0.703 3.924 l -0.017 0.08 c -0.202 -0.535 -0.536 -1.162 -1.114 -1.854 c -0.877 -1.051 -2.644 -2.476 -2.205 -3.362 c 0.441 -0.886 1.99 -0.543 2.422 -0.377 c 0.435 0.166 0.928 -0.141 1.144 -0.772 c 0.217 -0.632 -0.431 -2.017 -1.772 -2.296 c -0.107 -0.022 -0.227 -0.025 -0.339 -0.038 c -0.092 -0.125 -0.188 -0.246 -0.312 -0.342 c -0.288 -0.246 -0.684 -0.287 -1.051 -0.311 c -0.748 -0.045 -1.477 0.218 -2.137 0.544 c -0.658 0.343 -1.279 0.774 -1.75 1.341 c -0.465 0.573 -0.676 1.322 -0.66 2.049 c -0.008 0.183 0.029 0.363 0.031 0.546 c -0.01 0.181 -0.031 0.363 -0.002 0.545 c 0.053 0.362 0.225 0.694 0.414 1 c 0.003 0.004 0.006 0.008 0.009 0.012 c -0.011 0.042 -0.182 -0.197 -0.175 -0.126 c 0.268 0.632 0.768 1.076 0.752 0.959 c 0.418 0.709 1.09 1.654 1.455 2.395 c 0.08 0.104 -0.041 -0.233 0.074 -0.053 c 0.039 0.135 0.051 0.217 0.047 0.345 c -0.01 0.036 -0.041 0.184 -0.078 0.279 c -0.088 0.22 -0.234 0.445 -0.395 0.616 c -0.326 0.353 -0.652 0.449 -0.668 0.517 c 0.522 -0.064 1.084 -0.568 1.274 -1.148 c 0.113 -0.296 0.023 -0.569 -0.147 -0.897 c -0.097 -0.188 -0.212 -0.374 -0.333 -0.557 c 0.021 0.031 0.046 0.061 0.067 0.092 c 0.165 0.253 0.354 0.531 0.451 0.801 c 0.008 0.021 0.018 0.04 0.024 0.061 c 0.028 0.094 0.045 0.186 0.042 0.275 c -0.059 0.778 -0.834 1.592 -1.65 1.516 c -0.49 -0.023 -1.002 0.041 -1.473 0.257 c -0.459 0.202 -0.92 0.661 -0.926 1.231 c 0.008 0.619 0.451 1.026 0.889 1.259 c 0.286 0.148 0.595 0.231 0.908 0.271 c 0.38 0.331 0.971 0.562 1.684 0.553 c 1.629 -0.02 3.679 -0.378 4.892 -1.831 l -0.004 0.057 l -0.003 0.138 l 0.009 0.088 c 0.004 0.023 0.014 0.058 0.022 0.083 c 0.017 0.03 -0.019 -0.009 0.045 0.083 c 0.054 0.072 0.164 0.12 0.233 0.119 l 0.094 -0.001 l 0.98 -0.006 c -0.015 0.223 -0.011 0.359 0.019 0.359 h 0.149 c 0 0 0.631 -0.059 1.41 -0.13 c 0.779 -0.07 1.647 -1.214 1.938 -2.554 l 0.149 -0.697 c 0.049 -0.227 0.11 -0.401 0.176 -0.554 c 0.027 0.081 0.057 0.162 0.086 0.242 c 0.13 0.358 0.322 0.708 0.562 1.011 c 0.392 0.498 0.953 0.918 1.593 1.03 c 0.508 0.465 1.113 0.727 1.668 0.646 c 0.994 -0.144 1.399 -1.297 0.907 -2.575 l -0.682 -1.777 c -0.492 -1.279 -0.261 -3.231 0.519 -4.359 l 1.274 -1.85 C 33.963 13.889 33.84 12.975 32.91 12.975 z M 17.29 24.776 c -1.059 -0.068 -2.053 0.316 -2.252 1.098 c -0.04 0.158 -0.022 0.319 0.025 0.477 c -0.354 -0.11 -0.674 -0.296 -0.855 -0.582 c -0.074 -0.117 -0.111 -0.258 -0.113 -0.362 c 0.004 -0.16 0.055 -0.287 0.133 -0.415 c 0.16 -0.251 0.447 -0.441 0.762 -0.55 c 0.15 0 0.383 -0.02 0.662 -0.012 c 0.143 0.001 0.275 0.014 0.459 0.029 c 0.197 0.012 0.445 -0.004 0.65 -0.082 c 0.865 -0.303 1.326 -1.161 1.33 -1.674 c -0.037 -0.037 -0.123 0.359 -0.348 0.679 c -0.215 0.324 -0.529 0.562 -0.537 0.517 c 0.184 -0.21 0.43 -0.49 0.594 -0.872 c 0.08 -0.188 0.144 -0.4 0.144 -0.631 c 0.004 -0.241 -0.094 -0.449 -0.197 -0.646 c -0.228 -0.396 -0.491 -0.745 -0.736 -1.019 c -0.188 -0.231 -0.381 -0.46 -0.568 -0.689 c -0.51 -0.621 -1.086 -1.235 -1.342 -1.976 c -0.059 -0.185 -0.084 -0.368 -0.068 -0.562 c 0.004 -0.086 0.021 -0.227 0.004 -0.335 l -0.025 -0.3 c -0.021 -0.398 0.019 -0.8 0.141 -1.179 c 0.221 -0.785 0.822 -1.356 1.5 -1.82 c 0.678 -0.452 1.451 -0.813 2.246 -0.925 c 0.197 -0.031 0.408 -0.027 0.6 -0.012 c 0.199 0.017 0.424 0.044 0.59 0.103 c 0.217 0.077 0.396 0.229 0.547 0.414 c -0.067 -0.005 -0.129 -0.021 -0.198 -0.022 c -1.369 -0.025 -3.363 1.144 -3.982 2.23 c -0.312 0.549 -0.508 1.268 -0.383 2.188 c 0.043 0.311 -0.246 0.757 0.691 1.976 c 0.729 0.944 1.941 2.109 2.24 2.91 C 19.299 23.532 18.346 24.847 17.29 24.776 z M 26.553 7.06 l -2.859 17.079 c -0.113 0.676 -0.199 1.289 -0.245 1.73 c -0.264 -0.051 -0.646 -0.089 -1.12 -0.114 c 0 0 0.083 -0.325 0.211 -0.855 c 0.159 -0.312 0.291 -0.66 0.381 -1.05 c 0 0 0.041 -0.219 0.002 -0.599 c 0.379 -1.683 0.828 -3.88 1.004 -5.52 c 0.14 -0.29 0.127 0.269 0.392 -0.746 c 0.399 -2.019 0.687 -4.154 0.94 -6.315 l 0.375 -3.253 c 0.076 -0.547 0.095 -1.094 0.24 -1.55 c 0.146 -0.471 0.396 -0.923 0.744 -1.25 c 0.193 -0.08 0.502 -0.226 0.797 -0.207 c 0.239 0.01 0.438 0.13 0.594 0.374 C 27.321 5.138 26.727 6.021 26.553 7.06 z M 27.807 23.46 c -0.195 -0.312 -0.312 -0.664 -0.441 -1.027 c 0.311 -0.49 0.727 -0.266 1.059 0.693 l 0.131 0.371 c 0.158 0.458 0.41 0.867 0.709 1.203 C 28.66 24.492 28.145 24.013 27.807 23.46 z M 29.814 15.016 l -0.42 0.607 c -0.779 1.128 -1.217 0.947 -0.975 -0.402 l 0.043 -0.242 c 0.187 -0.242 0.351 -0.477 0.551 -0.688 c 0.258 -0.287 0.541 -0.554 0.842 -0.798 c 0.59 -0.463 1.312 -0.956 1.982 -0.934 c 0.317 0.019 0.474 0.217 0.467 0.528 C 31.448 13.356 30.438 14.113 29.814 15.016 z" transform="translate(-23.6841, -15.5798)" style="stroke: none; stroke-width: 1; stroke-dasharray: none; stroke-linecap: butt; stroke-dashoffset: 0; stroke-linejoin: miter; stroke-miterlimit: 4; is-custom-font: none; font-file-url: none; fill: rgb(0,0,0); fill-rule: nonzero; opacity: 1;"/>
</g>
</g>
</g>
<g id="810427" style="" transform="matrix(1 0 0 1 678.6427 519.9325)">
		
<path d="M-79.38-47.64Q-79.38-35.06-83.01-20.90Q-86.64-6.74-93.17 7.17Q-99.70 21.09-109.26 33.79Q-118.82 46.50-130.92 56.06Q-143.02 65.62-157.42 71.42Q-171.82 77.23-188.03 77.23L-188.03 77.23Q-191.42 77.23-194.81 76.87Q-198.20 76.51-201.59 76.02L-201.59 76.02Q-195.05 42.63-188.76 10.92L-188.76 10.92Q-186.34-2.39-183.68-16.79Q-181.02-31.18-178.60-45.22Q-176.18-59.26-173.88-72.08Q-171.58-84.91-170.13-95.31L-170.13-95.31Q-159.72-97.25-149.07-98.94Q-138.42-100.64-127.29-100.64L-127.29-100.64Q-114.22-100.64-105.15-96.52Q-96.07-92.41-90.39-85.15Q-84.70-77.89-82.04-68.21Q-79.38-58.53-79.38-47.64L-79.38-47.64ZM-136.49-66.52Q-139.15-52.24-142.05-39.17Q-144.96-26.10-147.86-12.79Q-150.77 0.52-153.67 15.04Q-156.57 29.56-159.24 46.74L-159.24 46.74Q-153.43 42.87-147.98 36.21Q-142.54 29.56-137.70 20.85Q-132.86 12.13-128.87 2.45Q-124.87-7.23-121.97-16.42Q-119.06-25.62-117.49-33.60Q-115.92-41.59-115.92-47.40L-115.92-47.40Q-115.92-56.35-120.88-61.43Q-125.84-66.52-136.49-66.52L-136.49-66.52ZM-15.73 64.16L-93.90 76.26L-62.19-95.80L14.28-102.33Q12.58-97.01 11.37-91.44L11.37-91.44Q10.16-86.84 9.07-81.88Q7.99-76.92 7.26-73.05L7.26-73.05Q4.84-72.81 0.36-72.69Q-4.11-72.57-9.20-72.45Q-14.28-72.32-19.48-72.32Q-24.68-72.32-28.56-72.32L-28.56-72.32L-37.03-29.01Q-29.52-29.49-22.99-29.73L-22.99-29.73Q-17.67-29.97-12.10-29.97Q-6.53-29.97-3.87-30.22L-3.87-30.22Q-4.84-23.44-5.69-16.91Q-6.53-10.37-7.74-3.60L-7.74-3.60Q-10.16-3.35-15.61-3.23Q-21.05-3.11-26.62-2.87L-26.62-2.87Q-32.91-2.63-40.41-2.39L-40.41-2.39L-48.64 42.14L-13.31 36.58L-15.73 64.16ZM93.90 16.25Q93.90 29.80 88.69 40.81Q83.49 51.82 74.66 59.81Q65.82 67.79 53.84 72.15Q41.87 76.51 28.07 76.51L28.07 76.51Q18.39 76.51 8.71 71.30Q-0.97 66.10-9.92 54.73L-9.92 54.73L7.99 19.64Q9.68 22.78 13.07 26.05Q16.46 29.32 20.69 31.74Q24.93 34.16 29.16 35.73Q33.40 37.30 36.78 37.30L36.78 37.30Q39.69 37.30 42.83 36.33Q45.98 35.37 48.64 33.43Q51.30 31.49 52.88 28.95Q54.45 26.41 54.45 23.02L54.45 23.02Q54.45 17.22 50.70 12.25Q46.95 7.29 41.38 2.82Q35.82-1.66 29.28-6.26Q22.75-10.86 17.30-15.94Q11.86-21.02 7.99-27.31Q4.11-33.60 4.11-41.35L4.11-41.35Q4.11-53.93 11.62-64.82Q19.12-75.71 30.37-83.58Q41.62-91.44 54.93-96.04Q68.24-100.64 80.10-100.64L80.10-100.64Q86.64-100.64 92.44-99.07Q98.25-97.49 102.49-93.98Q106.72-90.47 109.26-85.15Q111.80-79.83 111.80-71.84L111.80-71.84Q111.80-68.45 111.20-65.06Q110.59-61.68 110.11-57.80L110.11-57.80L75.02-47.64Q75.50-49.58 75.87-51.51Q76.23-53.45 76.23-55.38L76.23-55.38Q76.23-62.64 73.69-65.91Q71.15-69.18 67.03-69.18L67.03-69.18Q65.10-69.18 62.31-67.73Q59.53-66.27 56.75-63.98Q53.97-61.68 52.03-58.53Q50.09-55.38 50.09-51.75L50.09-51.75Q50.09-45.95 53.36-42.07Q56.63-38.20 61.47-34.81Q66.31-31.43 71.99-27.92Q77.68-24.41 82.52-18.84Q87.36-13.28 90.63-4.93Q93.90 3.42 93.90 16.25L93.90 16.25ZM131.65 70.46L92.44 76.26Q99.70 42.38 106.00 10.44L106.00 10.44Q108.42-3.35 111.08-18.12Q113.74-32.88 116.04-47.40Q118.34-61.92 120.15-75.59Q121.97-89.26 122.94-100.40L122.94-100.40Q128.50-99.91 135.52-99.55Q142.54-99.19 148.59-98.70L148.59-98.70Q155.85-98.22 163.11-98.22L163.11-98.22Q162.87-97.25 162.38-94.59Q161.90-91.93 161.17-88.18Q160.45-84.42 159.60-79.83Q158.75-75.23 157.78-70.63L157.78-70.63Q155.85-59.98 153.43-46.67L153.43-46.67L154.88-46.91Q157.30-50.79 161.78-57.68Q166.25-64.58 171.09-72.32Q175.93-80.07 180.53-87.21Q185.13-94.35 188.28-99.43L188.28-99.43Q200.38-100.40 212.48-101.61Q224.58-102.82 236.68-104.75L236.68-104.75Q225.30-89.51 214.65-74.74L214.65-74.74Q210.06-68.45 205.34-61.68Q200.62-54.90 196.02-48.37Q191.42-41.83 187.43-35.78Q183.44-29.73 180.29-24.65L180.29-24.65Q185.61-0.21 192.87 22.54Q200.13 45.29 207.64 69.00L207.64 69.00Q202.07 68.76 196.26 68.64Q190.45 68.52 184.89 68.52L184.89 68.52Q177.87 68.52 171.34 68.64Q164.80 68.76 157.78 69.00L157.78 69.00Q155.61 53.27 153.06 35.97Q150.52 18.67 148.35 2.94L148.35 2.94L143.99 8.02Q142.30 15.28 140.24 25.93Q138.18 36.58 136.25 46.50L136.25 46.50Q134.07 58.11 131.65 70.46L131.65 70.46Z" style="stroke: none; stroke-width: 1; stroke-dasharray: none; stroke-linecap: butt; stroke-dashoffset: 0; stroke-linejoin: miter; stroke-miterlimit: 4; is-custom-font: none; font-file-url: none; fill: rgb(0,0,0); fill-rule: nonzero; opacity: 1; white-space: pre;" font-weight="normal" font-style="normal" font-size="242" font-family="Bangers" xml:space="preserve"/></g>
</svg>